<svg xmlns="http://www.w3.org/2000/svg" viewBox="0 0 100 100">
<defs><clipPath id="s"><polygon points="50.00,5.00 61.11,34.71 92.80,36.09 67.97,55.84 76.45,86.41 50.00,68.90 23.55,86.41 32.03,55.84 7.20,36.09 38.89,34.71"/></clipPath></defs>
<g clip-path="url(#s)"><rect x="0" y="0" width="10" height="10" fill="#004fa9"/><rect x="10" y="0" width="10" height="10" fill="#086d44"/><rect x="20" y="0" width="10" height="10" fill="#7ab048"/><rect x="30" y="0" width="10" height="10" fill="#7ab048"/><rect x="40" y="0" width="10" height="10" fill="#3c6fd6"/><rect x="50" y="0" width="10" height="10" fill="#6a3fa0"/><rect x="60" y="0" width="10" height="10" fill="#086d44"/><rect x="70" y="0" width="10" height="10" fill="#c0432e"/><rect x="80" y="0" width="10" height="10" fill="#e8a81c"/><rect x="90" y="0" width="10" height="10" fill="#e8a81c"/><rect x="0" y="10" width="10" height="10" fill="#6a3fa0"/><rect x="10" y="10" width="10" height="10" fill="#d4762e"/><rect x="20" y="10" width="10" height="10" fill="#086d44"/><rect x="30" y="10" width="10" height="10" fill="#086d44"/><rect x="40" y="10" width="10" height="10" fill="#9f2f62"/><rect x="50" y="10" width="10" height="10" fill="#c0432e"/><rect x="60" y="10" width="10" height="10" fill="#2a9d8f"/><rect x="70" y="10" width="10" height="10" fill="#e05c8a"/><rect x="80" y="10" width="10" height="10" fill="#9f2f62"/><rect x="90" y="10" width="10" height="10" fill="#086d44"/><rect x="0" y="20" width="10" height="10" fill="#6a3fa0"/><rect x="10" y="20" width="10" height="10" fill="#2a9d8f"/><rect x="20" y="20" width="10" height="10" fill="#e05c8a"/><rect x="30" y="20" width="10" height="10" fill="#004fa9"/><rect x="40" y="20" width="10" height="10" fill="#c0432e"/><rect x="50" y="20" width="10" height="10" fill="#004fa9"/><rect x="60" y="20" width="10" height="10" fill="#e05c8a"/><rect x="70" y="20" width="10" height="10" fill="#086d44"/><rect x="80" y="20" width="10" height="10" fill="#e8a81c"/><rect x="90" y="20" width="10" height="10" fill="#b886d8"/><rect x="0" y="30" width="10" height="10" fill="#b886d8"/><rect x="10" y="30" width="10" height="10" fill="#2a9d8f"/><rect x="20" y="30" width="10" height="10" fill="#d4762e"/><rect x="30" y="30" width="10" height="10" fill="#7ab048"/><rect x="40" y="30" width="10" height="10" fill="#9f2f62"/><rect x="50" y="30" width="10" height="10" fill="#004fa9"/><rect x="60" y="30" width="10" height="10" fill="#7ab048"/><rect x="70" y="30" width="10" height="10" fill="#3c6fd6"/><rect x="80" y="30" width="10" height="10" fill="#2a9d8f"/><rect x="90" y="30" width="10" height="10" fill="#2a9d8f"/><rect x="0" y="40" width="10" height="10" fill="#7ab048"/><rect x="10" y="40" width="10" height="10" fill="#9f2f62"/><rect x="20" y="40" width="10" height="10" fill="#3c6fd6"/><rect x="30" y="40" width="10" height="10" fill="#e8a81c"/><rect x="40" y="40" width="10" height="10" fill="#004fa9"/><rect x="50" y="40" width="10" height="10" fill="#086d44"/><rect x="60" y="40" width="10" height="10" fill="#7ab048"/><rect x="70" y="40" width="10" height="10" fill="#7ab048"/><rect x="80" y="40" width="10" height="10" fill="#e05c8a"/><rect x="90" y="40" width="10" height="10" fill="#e8a81c"/><rect x="0" y="50" width="10" height="10" fill="#086d44"/><rect x="10" y="50" width="10" height="10" fill="#3c6fd6"/><rect x="20" y="50" width="10" height="10" fill="#9f2f62"/><rect x="30" y="50" width="10" height="10" fill="#2a9d8f"/><rect x="40" y="50" width="10" height="10" fill="#c0432e"/><rect x="50" y="50" width="10" height="10" fill="#086d44"/><rect x="60" y="50" width="10" height="10" fill="#e05c8a"/><rect x="70" y="50" width="10" height="10" fill="#9f2f62"/><rect x="80" y="50" width="10" height="10" fill="#e8a81c"/><rect x="90" y="50" width="10" height="10" fill="#2a9d8f"/><rect x="0" y="60" width="10" height="10" fill="#086d44"/><rect x="10" y="60" width="10" height="10" fill="#004fa9"/><rect x="20" y="60" width="10" height="10" fill="#6a3fa0"/><rect x="30" y="60" width="10" height="10" fill="#e8a81c"/><rect x="40" y="60" width="10" height="10" fill="#d4762e"/><rect x="50" y="60" width="10" height="10" fill="#9f2f62"/><rect x="60" y="60" width="10" height="10" fill="#b886d8"/><rect x="70" y="60" width="10" height="10" fill="#d4762e"/><rect x="80" y="60" width="10" height="10" fill="#9f2f62"/><rect x="90" y="60" width="10" height="10" fill="#6a3fa0"/><rect x="0" y="70" width="10" height="10" fill="#2a9d8f"/><rect x="10" y="70" width="10" height="10" fill="#086d44"/><rect x="20" y="70" width="10" height="10" fill="#c0432e"/><rect x="30" y="70" width="10" height="10" fill="#086d44"/><rect x="40" y="70" width="10" height="10" fill="#d4762e"/><rect x="50" y="70" width="10" height="10" fill="#7ab048"/><rect x="60" y="70" width="10" height="10" fill="#d4762e"/><rect x="70" y="70" width="10" height="10" fill="#6a3fa0"/><rect x="80" y="70" width="10" height="10" fill="#9f2f62"/><rect x="90" y="70" width="10" height="10" fill="#7ab048"/><rect x="0" y="80" width="10" height="10" fill="#9f2f62"/><rect x="10" y="80" width="10" height="10" fill="#d4762e"/><rect x="20" y="80" width="10" height="10" fill="#086d44"/><rect x="30" y="80" width="10" height="10" fill="#7ab048"/><rect x="40" y="80" width="10" height="10" fill="#e05c8a"/><rect x="50" y="80" width="10" height="10" fill="#9f2f62"/><rect x="60" y="80" width="10" height="10" fill="#086d44"/><rect x="70" y="80" width="10" height="10" fill="#2a9d8f"/><rect x="80" y="80" width="10" height="10" fill="#e8a81c"/><rect x="90" y="80" width="10" height="10" fill="#3c6fd6"/><rect x="0" y="90" width="10" height="10" fill="#c0432e"/><rect x="10" y="90" width="10" height="10" fill="#6a3fa0"/><rect x="20" y="90" width="10" height="10" fill="#b886d8"/><rect x="30" y="90" width="10" height="10" fill="#9f2f62"/><rect x="40" y="90" width="10" height="10" fill="#3c6fd6"/><rect x="50" y="90" width="10" height="10" fill="#2a9d8f"/><rect x="60" y="90" width="10" height="10" fill="#c0432e"/><rect x="70" y="90" width="10" height="10" fill="#e8a81c"/><rect x="80" y="90" width="10" height="10" fill="#6a3fa0"/><rect x="90" y="90" width="10" height="10" fill="#2a9d8f"/></g>
<g clip-path="url(#s)" fill="none" stroke-linejoin="miter" stroke-miterlimit="8">
<polygon points="50.00,5.00 61.11,34.71 92.80,36.09 67.97,55.84 76.45,86.41 50.00,68.90 23.55,86.41 32.03,55.84 7.20,36.09 38.89,34.71" stroke="#e4d4b2" stroke-width="9"/>
<polygon points="50.00,5.00 61.11,34.71 92.80,36.09 67.97,55.84 76.45,86.41 50.00,68.90 23.55,86.41 32.03,55.84 7.20,36.09 38.89,34.71" stroke="#1c1610" stroke-width="4"/>
</g>
</svg>